<?xml version="1.0" encoding="UTF-8"?> <svg xmlns="http://www.w3.org/2000/svg" width="264" height="72" viewBox="0 0 264 72" fill="none"><rect width="264" height="72" fill="#E5E5E5"></rect><g clip-path="url(#clip0)"><rect width="1440" height="11765" transform="translate(-70 -26)" fill="#131823"></rect><g clip-path="url(#clip1)"><path d="M263.342 0H0V72H263.342V0Z" fill="black"></path><path d="M263.342 0H0V72H263.342V0Z" stroke="white" stroke-width="2" stroke-miterlimit="10"></path><path d="M33.1727 35.3C33.3242 35.5541 33.3999 35.9243 33.3999 36.4122C33.3999 37.6717 33.203 38.8458 32.8093 39.9325C32.4155 41.0193 31.8451 41.9638 31.0988 42.7668C30.3517 43.569 29.4439 44.1992 28.3745 44.6557C27.3052 45.1132 26.0945 45.3419 24.7416 45.3419C23.3895 45.3419 22.1334 45.0827 20.9732 44.5651C19.8129 44.0476 18.8033 43.3148 17.946 42.3704C17.0878 41.4259 16.4172 40.2883 15.9326 38.9576C15.448 37.6269 15.2065 36.1487 15.2065 34.5232C15.2065 32.8977 15.4489 31.4196 15.9326 30.0889C16.4172 28.7581 17.0886 27.6205 17.946 26.6752C18.8033 25.7308 19.8129 24.9989 20.9732 24.4813C22.1334 23.9629 23.4004 23.7046 24.7727 23.7046C28.1028 23.7046 30.6251 25.0048 32.3406 27.6053C32.5224 27.8289 32.6486 28.0271 32.7192 28.1999C32.7899 28.3727 32.8252 28.5193 32.8252 28.6412C32.8252 28.8649 32.7546 29.0478 32.6132 29.1893C32.4719 29.3316 32.3103 29.4028 32.1286 29.4028C31.9671 29.4028 31.8207 29.3621 31.6903 29.2808C31.559 29.1995 31.3823 29.0063 31.1602 28.7014C30.313 27.4825 29.3791 26.6032 28.3602 26.0653C27.3413 25.5266 26.1458 25.2572 24.7727 25.2572C23.5418 25.2572 22.4371 25.5063 21.4578 26.0035C20.4793 26.5016 19.6463 27.1716 18.9606 28.0153C18.2749 28.8581 17.7499 29.8441 17.3865 30.9715C17.023 32.0998 16.8421 33.2933 16.8421 34.5529C16.8421 35.8124 17.0289 37.0009 17.4025 38.1181C17.776 39.2354 18.3111 40.2172 19.0069 41.06C19.7027 41.9028 20.5357 42.5686 21.504 43.0556C22.4724 43.5436 23.5628 43.7867 24.7735 43.7867C25.8429 43.7867 26.8222 43.6088 27.7098 43.2539C28.5975 42.8981 29.3496 42.3899 29.9655 41.7292C30.5805 41.0693 31.05 40.2815 31.3731 39.3676C31.6962 38.4536 31.8375 37.4473 31.7971 36.3503H26.4083C26.166 36.3503 25.9741 36.2843 25.8328 36.1521C25.6914 36.02 25.6208 35.8421 25.6208 35.6193C25.6208 35.416 25.6914 35.2483 25.8328 35.1162C25.9741 34.984 26.166 34.918 26.4083 34.918H32.3718C32.7546 34.9196 33.0221 35.0467 33.1727 35.3Z" fill="#E6E6E6"></path><path d="M45.3285 45.0373C45.0862 45.0373 44.8902 44.9661 44.7379 44.8238C44.5865 44.6815 44.5107 44.4884 44.5107 44.2444V24.8002C44.5107 24.5765 44.5915 24.3885 44.7531 24.236C44.9146 24.0836 45.1165 24.0073 45.3588 24.0073H51.08C53.3601 24.0073 55.0655 24.5664 56.1963 25.6837C57.3262 26.8009 57.8916 28.3349 57.8916 30.2857C57.8916 31.7486 57.4726 33.0133 56.6354 34.0797C55.7983 35.1461 54.522 35.8526 52.8065 36.1982L57.953 43.4516C58.1953 43.7768 58.3165 44.0614 58.3165 44.3054C58.3165 44.5078 58.2407 44.6806 58.0893 44.8229C57.9378 44.9653 57.7519 45.0364 57.529 45.0364C57.1857 45.0364 56.8735 44.8331 56.5908 44.4265L51.0817 36.3498H46.1169V44.2436C46.116 44.773 45.8535 45.0373 45.3285 45.0373ZM53.4114 34.5837C54.0777 34.3397 54.6221 34.0094 55.0461 33.5935C55.4693 33.1767 55.7823 32.6846 55.9842 32.1154C56.1862 31.547 56.2871 30.9371 56.2871 30.2866C56.2871 28.7627 55.8277 27.5743 54.9098 26.7213C53.9919 25.8683 52.6651 25.4414 50.9294 25.4414H46.116V34.9505H50.99C51.9382 34.9488 52.7459 34.8277 53.4114 34.5837Z" fill="#E6E6E6"></path><path d="M70.3048 39.0638L68.1249 44.4579C68.0239 44.6815 67.9179 44.8331 67.8077 44.9153C67.6967 44.9966 67.5604 45.0373 67.3988 45.0373C67.2171 45.0373 67.0455 44.9763 66.8839 44.8543C66.7224 44.7323 66.6416 44.5595 66.6416 44.3367C66.6416 44.2351 66.6769 44.0877 66.7468 43.8946C66.8174 43.7014 66.9638 43.3313 67.186 42.7824L74.5419 24.9526C74.663 24.6477 74.7993 24.4139 74.9508 24.2513C75.1022 24.0886 75.3092 24.0073 75.5708 24.0073C76.0151 24.0073 76.3583 24.3224 76.6007 24.9518L83.9263 42.7815C84.1484 43.3296 84.2948 43.6955 84.3655 43.8785C84.4361 44.0614 84.4706 44.2037 84.4706 44.3054C84.4706 44.5493 84.3848 44.7323 84.2132 44.8534C84.0416 44.9754 83.8548 45.0364 83.6529 45.0364C83.3904 45.0364 83.1884 44.9398 83.0471 44.7467C82.9057 44.5536 82.7038 44.1419 82.4413 43.5125L80.6551 39.0629H70.3048V39.0638ZM80.1133 37.6924L75.5422 26.2325L70.8803 37.6924H80.1133Z" fill="#E6E6E6"></path><path d="M106.042 24.1292C106.133 24.0479 106.269 24.0072 106.451 24.0072C106.653 24.0072 106.834 24.0733 106.996 24.2054C107.158 24.3375 107.238 24.5053 107.238 24.7077C107.238 24.8094 107.218 24.9059 107.178 24.9974C107.137 25.0889 107.097 25.1855 107.057 25.2871L99.9422 36.8986V44.2434C99.9422 44.4874 99.8664 44.6805 99.715 44.8228C99.5635 44.9651 99.3667 45.0363 99.1244 45.0363C98.5994 45.0363 98.3369 44.772 98.3369 44.2434V36.8986L91.1324 25.2566C91.0516 25.1143 91.0112 24.9517 91.0112 24.7687C91.0112 24.5857 91.0769 24.4129 91.2081 24.2503C91.3394 24.0877 91.5253 24.0063 91.7684 24.0063C91.9098 24.0063 92.0461 24.0368 92.1773 24.0978C92.3086 24.1588 92.4146 24.2706 92.4945 24.4333L99.1244 35.3442L105.753 24.4943C105.855 24.3333 105.951 24.2113 106.042 24.1292Z" fill="#E6E6E6"></path><path d="M134.302 24.1759C134.444 24.0641 134.625 24.0082 134.847 24.0082C135.392 24.0082 135.664 24.2826 135.664 24.8307V44.3062C135.664 44.5299 135.589 44.712 135.437 44.8543C135.286 44.9966 135.089 45.0677 134.847 45.0677C134.624 45.0677 134.438 44.9966 134.287 44.8543C134.136 44.712 134.06 44.529 134.06 44.3062V27.2685L126.612 40.3124C126.431 40.6173 126.219 40.7698 125.977 40.7698C125.694 40.7698 125.482 40.6071 125.341 40.2819L118.016 27.36V44.2757C118.016 44.784 117.754 45.0373 117.229 45.0373C116.986 45.0373 116.79 44.9661 116.638 44.8238C116.487 44.6815 116.411 44.4985 116.411 44.2757V24.8307C116.411 24.5867 116.482 24.3893 116.622 24.236C116.763 24.0836 116.965 24.0073 117.228 24.0073C117.47 24.0073 117.662 24.0632 117.803 24.175C117.945 24.2869 118.096 24.4851 118.258 24.7697L126.068 38.4844L133.848 24.7697C134.009 24.4851 134.161 24.2869 134.302 24.1759Z" fill="#E6E6E6"></path><path d="M148.774 39.0638L146.595 44.4579C146.494 44.6815 146.388 44.8331 146.277 44.9153C146.166 44.9966 146.03 45.0373 145.868 45.0373C145.686 45.0373 145.516 44.9763 145.354 44.8543C145.193 44.7323 145.112 44.5595 145.112 44.3367C145.112 44.2351 145.147 44.0877 145.218 43.8946C145.288 43.7014 145.435 43.3313 145.656 42.7824L153.012 24.9526C153.134 24.6477 153.27 24.4139 153.421 24.2513C153.572 24.0886 153.779 24.0073 154.041 24.0073C154.485 24.0073 154.829 24.3224 155.071 24.9518L162.396 42.7815C162.619 43.3296 162.765 43.6955 162.835 43.8785C162.905 44.0614 162.941 44.2037 162.941 44.3054C162.941 44.5493 162.855 44.7323 162.683 44.8534C162.512 44.9746 162.325 45.0364 162.123 45.0364C161.861 45.0364 161.659 44.9398 161.518 44.7467C161.377 44.5536 161.175 44.1419 160.912 43.5125L159.126 39.0629H148.774V39.0638ZM158.583 37.6924L154.011 26.2325L149.349 37.6924H158.583Z" fill="#E6E6E6"></path><path d="M185.133 24.2065C185.274 24.3387 185.344 24.5064 185.344 24.7088C185.344 24.9324 185.274 25.1103 185.133 25.2425C184.992 25.3746 184.809 25.4407 184.588 25.4407H178.05V44.2454C178.05 44.7739 177.787 45.0382 177.262 45.0382C176.738 45.0382 176.475 44.7739 176.475 44.2454V25.4407H169.906C169.683 25.4407 169.507 25.3746 169.375 25.2425C169.245 25.1103 169.179 24.9324 169.179 24.7088C169.179 24.5055 169.245 24.3378 169.375 24.2065C169.507 24.0744 169.683 24.0083 169.906 24.0083H184.587C184.809 24.0083 184.992 24.0735 185.133 24.2065Z" fill="#E6E6E6"></path><path d="M194.442 24.236C194.593 24.0836 194.79 24.0073 195.032 24.0073C195.274 24.0073 195.467 24.0836 195.608 24.236C195.749 24.3885 195.819 24.5765 195.819 24.8002V44.2444C195.819 44.773 195.557 45.0373 195.032 45.0373C194.79 45.0373 194.593 44.9661 194.442 44.8238C194.29 44.6815 194.215 44.4884 194.215 44.2444V24.8002C194.215 24.5765 194.291 24.3885 194.442 24.236Z" fill="#E6E6E6"></path><path d="M221.991 27.6802C221.557 27.2228 221.067 26.8162 220.523 26.4613C219.979 26.1064 219.373 25.8167 218.706 25.593C218.041 25.3694 217.304 25.2576 216.497 25.2576C215.286 25.2576 214.191 25.5016 213.212 25.9886C212.234 26.4757 211.402 27.1364 210.715 27.9699C210.029 28.8025 209.505 29.7784 209.141 30.8956C208.778 32.0129 208.597 33.2022 208.597 34.4609C208.597 35.7205 208.784 36.914 209.156 38.0423C209.53 39.1705 210.059 40.1608 210.746 41.0146C211.432 41.8676 212.265 42.5435 213.244 43.0416C214.222 43.5397 215.328 43.7879 216.558 43.7879C217.95 43.7879 219.192 43.4626 220.281 42.8129C221.372 42.1624 222.28 41.2789 223.006 40.1616C223.208 39.8575 223.43 39.7042 223.672 39.7042C223.854 39.7042 224.025 39.7753 224.186 39.9177C224.348 40.06 224.428 40.2429 224.428 40.4657C224.428 40.5479 224.412 40.6495 224.383 40.7706C224.353 40.8926 224.287 41.0248 224.186 41.1671C223.984 41.4712 223.681 41.8625 223.278 42.3402C222.874 42.818 222.36 43.2796 221.734 43.7277C221.108 44.1741 220.361 44.5561 219.494 44.8704C218.626 45.1855 217.627 45.3431 216.497 45.3431C215.124 45.3431 213.858 45.0839 212.697 44.5663C211.536 44.0488 210.534 43.3161 209.685 42.3716C208.837 41.4271 208.172 40.2836 207.687 38.9427C207.203 37.6018 206.961 36.1186 206.961 34.4931C206.961 32.8676 207.203 31.3895 207.687 30.0587C208.172 28.728 208.837 27.5896 209.685 26.6451C210.534 25.6998 211.536 24.9738 212.697 24.4656C213.858 23.9574 215.124 23.7041 216.497 23.7041C217.465 23.7041 218.343 23.8261 219.13 24.07C219.918 24.314 220.624 24.6138 221.25 24.9696C221.876 25.3245 222.405 25.7108 222.839 26.1275C223.274 26.5443 223.622 26.9246 223.884 27.2702C224.307 27.8598 224.519 28.3273 224.519 28.6721C224.519 28.9364 224.439 29.1244 224.278 29.2362C224.116 29.3481 223.955 29.404 223.793 29.404C223.47 29.404 223.239 29.282 223.097 29.038C222.793 28.5891 222.424 28.1376 221.991 27.6802Z" fill="#E6E6E6"></path><path d="M243.682 43.4676C244.328 43.2542 244.883 42.9586 245.347 42.5833C245.81 42.2081 246.179 41.76 246.451 41.2424C246.723 40.7249 246.86 40.17 246.86 39.5813C246.86 38.8097 246.723 38.1744 246.451 37.6763C246.179 37.1791 245.78 36.7572 245.255 36.4116C244.731 36.066 244.09 35.7721 243.333 35.5282C242.577 35.2842 241.714 35.0403 240.745 34.7963C240.2 34.654 239.595 34.4609 238.929 34.2169C238.263 33.973 237.632 33.6375 237.037 33.2106C236.442 32.7845 235.947 32.256 235.553 31.6258C235.16 30.9956 234.963 30.2137 234.963 29.2786C234.963 28.4662 235.129 27.714 235.463 27.0228C235.796 26.3316 236.254 25.7429 236.841 25.255C237.425 24.7671 238.112 24.3868 238.899 24.1124C239.686 23.8379 240.523 23.7007 241.411 23.7007C242.158 23.7007 242.834 23.7769 243.439 23.9294C244.045 24.0819 244.574 24.2648 245.029 24.4783C245.483 24.6917 245.866 24.9154 246.179 25.1492C246.492 25.3829 246.739 25.571 246.921 25.7133C247.204 25.8963 247.345 26.13 247.345 26.4147C247.345 26.6383 247.263 26.8263 247.103 26.9788C246.941 27.1313 246.769 27.2075 246.588 27.2075C246.406 27.2075 246.255 27.177 246.134 27.116C246.012 27.055 245.902 26.994 245.801 26.9331C245.661 26.8314 245.473 26.684 245.242 26.4909C245.009 26.2978 244.717 26.1097 244.363 25.9268C244.011 25.7438 243.582 25.5862 243.078 25.4541C242.572 25.322 241.977 25.2559 241.291 25.2559C240.565 25.2559 239.913 25.3626 239.339 25.5761C238.763 25.7887 238.269 26.0784 237.855 26.4443C237.441 26.8102 237.129 27.2312 236.917 27.709C236.705 28.1859 236.599 28.689 236.599 29.2176C236.599 29.8884 236.76 30.4526 237.084 30.9092C237.406 31.3666 237.84 31.7621 238.385 32.0976C238.93 32.433 239.571 32.7219 240.307 32.9658C241.044 33.2098 241.827 33.4427 242.654 33.6672C243.3 33.8501 243.965 34.0577 244.651 34.2915C245.338 34.5252 245.968 34.8505 246.543 35.2664C247.119 35.6823 247.592 36.2211 247.966 36.8818C248.339 37.5425 248.525 38.3802 248.525 39.3958C248.525 40.1675 248.369 40.9095 248.056 41.6202C247.744 42.3317 247.279 42.962 246.664 43.51C246.048 44.058 245.291 44.5002 244.394 44.8356C243.496 45.1711 242.472 45.3379 241.322 45.3379C240.313 45.3379 239.425 45.2067 238.657 44.9415C237.891 44.6772 237.224 44.3579 236.66 43.9818C236.094 43.6057 235.635 43.2152 235.282 42.8078C234.928 42.402 234.662 42.0564 234.48 41.7718C234.399 41.6702 234.328 41.5533 234.268 41.4212C234.207 41.289 234.177 41.162 234.177 41.04C234.177 40.8164 234.264 40.6385 234.435 40.5072C234.606 40.375 234.783 40.309 234.965 40.309C235.247 40.309 235.479 40.4411 235.661 40.7054C235.883 41.0307 236.156 41.3712 236.479 41.7261C236.802 42.0819 237.196 42.4122 237.659 42.7171C238.123 43.0212 238.678 43.2754 239.324 43.4787C239.971 43.6819 240.737 43.7827 241.625 43.7827C242.35 43.787 243.036 43.6803 243.682 43.4676Z" fill="#E6E6E6"></path></g></g><defs><clipPath id="clip0"><rect width="1440" height="11765" fill="white" transform="translate(-70 -26)"></rect></clipPath><clipPath id="clip1"><rect width="263.342" height="72" fill="white"></rect></clipPath></defs></svg> 