<?xml version="1.0" encoding="UTF-8" standalone="no"?>
<!-- Created with Inkscape (http://www.inkscape.org/) -->

<svg
   xmlns:dc="http://purl.org/dc/elements/1.1/"
   xmlns:cc="http://creativecommons.org/ns#"
   xmlns:rdf="http://www.w3.org/1999/02/22-rdf-syntax-ns#"
   xmlns:svg="http://www.w3.org/2000/svg"
   xmlns="http://www.w3.org/2000/svg"
   xmlns:sodipodi="http://sodipodi.sourceforge.net/DTD/sodipodi-0.dtd"
   xmlns:inkscape="http://www.inkscape.org/namespaces/inkscape"
   width="182.142"
   height="41.890671"
   viewBox="0 0 48.191738 11.083573"
   version="1.1"
   id="svg8859"
   inkscape:version="0.92.0 r15299"
   sodipodi:docname="aerospace corp.svg">
  <defs
     id="defs8853">
    <clipPath
       id="clipPath8402"
       clipPathUnits="userSpaceOnUse">
      <path
         inkscape:connector-curvature="0"
         id="path8400"
         d="M 458.144,743.332 H 594 V 774 H 458.144 Z" />
    </clipPath>
  </defs>
  <sodipodi:namedview
     id="base"
     pagecolor="#ffffff"
     bordercolor="#666666"
     borderopacity="1.0"
     inkscape:pageopacity="0.0"
     inkscape:pageshadow="2"
     inkscape:zoom="4.9519345"
     inkscape:cx="90.5712"
     inkscape:cy="20.445222"
     inkscape:document-units="mm"
     inkscape:current-layer="layer1"
     showgrid="false"
     fit-margin-top="0"
     fit-margin-left="0"
     fit-margin-right="0"
     fit-margin-bottom="0"
     units="px"
     inkscape:window-width="1280"
     inkscape:window-height="744"
     inkscape:window-x="-4"
     inkscape:window-y="-4"
     inkscape:window-maximized="1" />
  <metadata
     id="metadata8856">
    <rdf:RDF>
      <cc:Work
         rdf:about="">
        <dc:format>image/svg+xml</dc:format>
        <dc:type
           rdf:resource="http://purl.org/dc/dcmitype/StillImage" />
        <dc:title></dc:title>
      </cc:Work>
    </rdf:RDF>
  </metadata>
  <g
     inkscape:label="Layer 1"
     inkscape:groupmode="layer"
     id="layer1"
     transform="translate(-57.679227,-198.34375)">
    <g
       id="g8966"
       transform="translate(0.13229202,-0.13228793)">
      <path
         d="m 72.493615,201.56378 h -0.01482 l -0.935919,2.35056 h 0.902053 z m -0.549628,-0.96097 h 1.552222 l 0.193675,5.27756 h -1.285875 l 0.02117,-1.00542 h -1.26365 l -0.398639,1.00542 h -1.285875 z"
         style="fill:#250082;fill-opacity:1;fill-rule:nonzero;stroke:none;stroke-width:0.35277778"
         id="path8390"
         inkscape:connector-curvature="0" />
      <path
         d="m 75.136962,200.60289 h 3.052586 l -0.213431,1.00506 h -1.811161 l -0.224366,1.05728 h 1.699683 l -0.21343,1.00506 h -1.700037 l -0.256116,1.20474 h 1.8923 l -0.213784,1.00542 h -3.134077 z"
         style="fill:#250082;fill-opacity:1;fill-rule:nonzero;stroke:none;stroke-width:0.35277778"
         id="path8394"
         inkscape:connector-curvature="0" />
      <path
         d="m 79.527672,202.82769 h 0.384175 c 0.502708,0 0.716139,-0.37677 0.781756,-0.68721 0.08502,-0.39935 -0.0063,-0.66534 -0.501298,-0.66534 h -0.377119 z m -0.768703,-2.22497 h 2.084211 c 1.056923,0 1.280936,0.65052 1.127125,1.37513 -0.163689,0.7687 -0.554214,1.14547 -1.160286,1.28587 l -0.0035,0.0148 c 0.767645,0.11077 0.706614,0.60607 0.570442,1.31586 -0.199319,1.04211 -0.184503,1.14547 -0.02293,1.21955 l -0.01376,0.0663 h -1.338086 c -0.05821,-0.17745 -0.03245,-0.47308 0.0949,-1.07174 0.194734,-0.91652 0.110067,-1.10878 -0.281869,-1.10878 h -0.473075 l -0.463197,2.18052 h -1.241778 z"
         style="fill:#250082;fill-opacity:1;fill-rule:nonzero;stroke:none;stroke-width:0.35277778"
         id="path8406"
         inkscape:connector-curvature="0" />
      <path
         d="m 83.689391,205.15599 c 0.502708,0 0.675569,-0.46567 0.983544,-1.91417 0.307975,-1.44886 0.333023,-1.91453 -0.169686,-1.91453 -0.487891,0 -0.660752,0.46567 -0.968727,1.91453 -0.307975,1.4485 -0.333023,1.91417 0.154869,1.91417 m -0.168628,0.82797 c -1.633361,0 -1.628775,-1.06468 -1.272116,-2.74214 0.356658,-1.67817 0.804686,-2.7425 2.437694,-2.7425 1.759303,0 1.583619,1.27882 1.272469,2.7425 -0.31115,1.46332 -0.678744,2.74214 -2.438047,2.74214"
         style="fill:#250082;fill-opacity:1;fill-rule:nonzero;stroke:none;stroke-width:0.35277778"
         id="path8410"
         inkscape:connector-curvature="0" />
      <path
         d="m 87.344487,204.269 -0.03951,0.18486 c -0.08467,0.39899 -0.0381,0.70202 0.390525,0.70202 0.436033,0 0.630767,-0.32526 0.695325,-0.62829 0.242005,-1.13806 -2.162175,-0.50236 -1.743075,-2.47615 0.179211,-0.84243 0.78105,-1.55187 2.059869,-1.55187 1.241778,0 1.551517,0.6283 1.378656,1.4411 l -0.02646,0.12559 h -1.19768 c 0.05362,-0.25118 0.06315,-0.43604 0.01446,-0.55422 -0.04727,-0.12559 -0.152753,-0.18485 -0.337608,-0.18485 -0.310445,0 -0.534459,0.18485 -0.616303,0.56938 -0.234245,1.10102 2.153002,0.54681 1.756833,2.40947 -0.254353,1.19733 -1.021644,1.67781 -2.160058,1.67781 -0.9017,0 -1.67887,-0.2734 -1.444625,-1.37477 l 0.07232,-0.34008 z"
         style="fill:#250082;fill-opacity:1;fill-rule:nonzero;stroke:none;stroke-width:0.35277778"
         id="path8414"
         inkscape:connector-curvature="0" />
      <path
         d="m 91.74479,202.90163 h 0.340078 c 0.4953,0 0.67945,-0.31044 0.754944,-0.66534 0.08643,-0.4064 0.01905,-0.71684 -0.483305,-0.71684 h -0.317853 z m -0.753181,-2.2987 h 1.921934 c 1.3081,0 1.358547,0.94615 1.218494,1.60408 -0.201083,0.9458 -0.793397,1.61114 -2.035175,1.61114 h -0.546805 l -0.438503,2.06234 h -1.241778 z"
         style="fill:#250082;fill-opacity:1;fill-rule:nonzero;stroke:none;stroke-width:0.35277778"
         id="path8418"
         inkscape:connector-curvature="0" />
      <path
         d="m 96.146715,201.56379 h -0.01482 l -0.935919,2.35056 h 0.902053 z m -0.549628,-0.96097 h 1.552222 l 0.193675,5.27756 h -1.285875 l 0.02152,-1.00542 h -1.264003 l -0.398639,1.00542 H 93.12976 Z"
         style="fill:#250082;fill-opacity:1;fill-rule:nonzero;stroke:none;stroke-width:0.35277778"
         id="path8422"
         inkscape:connector-curvature="0" />
      <path
         d="m 100.47879,202.436 c 0.16369,-0.7687 0.14711,-1.10878 -0.2667,-1.10878 -0.4953,0 -0.640292,0.47307 -0.934156,1.85526 -0.333022,1.56704 -0.367947,1.97344 0.149578,1.97344 0.458259,0 0.621598,-0.52458 0.803278,-1.34515 h 1.19768 l -0.0395,0.18486 c -0.24201,1.13806 -0.74048,1.98826 -2.277889,1.98826 -1.589264,0 -1.461559,-1.18992 -1.12395,-2.77919 0.287513,-1.35255 0.648758,-2.70545 2.408059,-2.70545 1.09397,0 1.59209,0.47308 1.32821,1.71485 l -0.0473,0.2219 z"
         style="fill:#250082;fill-opacity:1;fill-rule:nonzero;stroke:none;stroke-width:0.35277778"
         id="path8426"
         inkscape:connector-curvature="0" />
      <path
         d="m 102.55379,200.6029 h 3.05259 l -0.21379,1.00506 h -1.81081 l -0.22472,1.05728 h 1.70004 l -0.21378,1.00506 h -1.70004 l -0.25612,1.20474 h 1.8923 l -0.21378,1.00542 h -3.13372 z"
         style="fill:#250082;fill-opacity:1;fill-rule:nonzero;stroke:none;stroke-width:0.35277778"
         id="path8430"
         inkscape:connector-curvature="0" />
      <path
         d="m 62.88658,208.84876 c -2.55658,-0.005 -4.624564,-2.07257 -4.628797,-4.6288 0.0042,-2.55622 2.072217,-4.62421 4.628797,-4.62879 0.681567,0.001 1.327856,0.15028 1.909939,0.41522 l -5.886097,5.88609 h 1.988255 l 1.424517,-1.42451 v 0 l 2.449689,-2.44969 v 2.44969 h -2.353734 v 1.42451 h 3.775428 v -4.90537 c 0.81527,0.83396 1.318683,1.97379 1.321153,3.23285 -0.0049,2.55623 -2.072922,4.62421 -4.62915,4.6288 m 3.307997,-8.65046 v -1.58997 l -0.962378,0.96273 c -0.705202,-0.35666 -1.501422,-0.5588 -2.345619,-0.5588 -2.875844,0 -5.207353,2.33151 -5.207353,5.2077 0,2.87549 2.331509,5.20736 5.207353,5.20736 2.875844,0 5.207,-2.33187 5.207,-5.20736 0,-1.6196 -0.739422,-3.06669 -1.899003,-4.02166"
         style="fill:#250082;fill-opacity:1;fill-rule:nonzero;stroke:none;stroke-width:0.35277778"
         id="path8434"
         inkscape:connector-curvature="0" />
    </g>
  </g>
</svg>
